<?xml version="1.0" encoding="UTF-8" standalone="no"?>
<!-- Created with Inkscape (http://www.inkscape.org/) -->

<svg
   width="186.38037"
   height="28"
   viewBox="0 0 49.313139 7.4083334"
   version="1.1"
   id="svg1"
   xml:space="preserve"
   xmlns:xlink="http://www.w3.org/1999/xlink"
   xmlns="http://www.w3.org/2000/svg"
   xmlns:svg="http://www.w3.org/2000/svg"><defs
     id="defs1"><linearGradient
       id="linearGradient3"><stop
         style="stop-color:#ce00c2;stop-opacity:1;"
         offset="0"
         id="stop3" /><stop
         style="stop-color:#5200e7;stop-opacity:1;"
         offset="1"
         id="stop4" /></linearGradient><linearGradient
       id="linearGradient2"><stop
         style="stop-color:#ce00c2;stop-opacity:1;"
         offset="0.08401282"
         id="stop1" /><stop
         style="stop-color:#5200e7;stop-opacity:1;"
         offset="0.76058769"
         id="stop2" /></linearGradient><linearGradient
       xlink:href="#linearGradient2"
       id="linearGradient25"
       gradientUnits="userSpaceOnUse"
       gradientTransform="matrix(0.04624582,0,0,0.04624582,1313.5053,616.14858)"
       x1="256.94052"
       y1="796.18433"
       x2="416.94052"
       y2="956.37897" /><linearGradient
       xlink:href="#linearGradient3"
       id="linearGradient26"
       gradientUnits="userSpaceOnUse"
       gradientTransform="matrix(0.81727083,0,0,0.81727083,184.17447,107.81258)"
       x1="1096.454"
       y1="492.42038"
       x2="1108.6014"
       y2="500.24359" /></defs><g
     id="layer1"
     transform="translate(-1325.3877,-673.07715)"><g
       id="g24"
       transform="translate(0,20.10834)"><path
         id="path20"
         style="fill:url(#linearGradient25);fill-opacity:1;stroke-width:0.0212389"
         d="m 1329.0874,652.96878 a 3.6996617,3.7041643 0 0 0 -3.6997,3.70417 3.6996617,3.7041643 0 0 0 0.1,0.85546 c 0.9382,1.6118 1.8571,-0.10481 2.6072,-1.40127 0.5516,-1.08354 2.4242,-4.22582 3.4068,0.82914 0.2743,1.41115 0.9364,0.76701 1.2209,0.40509 a 3.6996617,3.7041643 0 0 0 0.065,-0.68842 3.6996617,3.7041643 0 0 0 -3.6997,-3.70417 z m 0.3811,4.87707 c -0.4597,0.013 -0.9284,0.29889 -1.3774,0.69315 -0.3859,0.32469 -0.8701,0.82423 -1.6665,0.57409 -0.073,-0.0229 -0.1417,-0.0576 -0.2065,-0.10175 a 3.6996617,3.7041643 0 0 0 2.8693,1.36577 3.6996617,3.7041643 0 0 0 2.9064,-1.41213 c -0.019,0.0164 -0.039,0.032 -0.06,0.0467 -0.3908,0.28294 -0.7704,0.2599 -1.4214,-0.62329 -0.3337,-0.39765 -0.686,-0.5527 -1.0436,-0.54263 z" /><g
         id="g23"
         transform="matrix(0.81239903,0,0,0.81239903,489.60653,239.54647)"><path
           d="m 1045.7762,516.5871 q 0.489,-1.36546 0.9042,-2.4726 0.4152,-1.11635 0.8119,-2.06664 0.4059,-0.95951 0.8395,-1.85444 h 1.1902 q 0.3229,0.6735 0.6274,1.38391 0.3044,0.70118 0.6089,1.46695 0.3045,0.76576 0.6274,1.64224 0.3321,0.87648 0.6919,1.90058 h -1.347 q -0.1199,-0.36905 -0.2583,-0.72886 -0.1292,-0.36905 -0.2491,-0.73809 h -2.6294 q -0.1292,0.36904 -0.2676,0.73809 -0.1292,0.35981 -0.2399,0.72886 z m 2.122,-2.4726 h 2.0113 q -0.1476,-0.43362 -0.2952,-0.82112 -0.1476,-0.39672 -0.286,-0.72886 -0.1292,-0.34136 -0.2399,-0.60892 -0.1107,-0.27678 -0.1938,-0.47976 -0.074,0.20298 -0.1845,0.47976 -0.1015,0.26756 -0.2399,0.60892 -0.1291,0.33214 -0.2767,0.72886 -0.1477,0.3875 -0.2953,0.82112 z m 6.7492,2.4726 q -0.2307,-0.47053 -0.4798,-1.01487 -0.2398,-0.54434 -0.4705,-1.15326 -0.2306,-0.61815 -0.4613,-1.28243 -0.2214,-0.67351 -0.4336,-1.38391 h 1.2824 q 0.1292,0.51666 0.3045,1.1348 0.1845,0.61815 0.3875,1.21785 0.2122,0.59047 0.3967,1.05177 0.1384,-0.34136 0.286,-0.76576 0.1568,-0.43363 0.3045,-0.88571 0.1476,-0.4613 0.2767,-0.91338 0.1384,-0.45208 0.2307,-0.83957 h 1.2363 q -0.203,0.7104 -0.4336,1.38391 -0.2215,0.66428 -0.4613,1.28243 -0.2307,0.60892 -0.4706,1.15326 -0.2306,0.54434 -0.4705,1.01487 z m 6.6246,0.11994 q -0.8672,0 -1.4208,-0.32292 -0.5536,-0.33214 -0.8303,-0.90415 -0.2676,-0.57202 -0.2676,-1.28243 0,-0.85803 0.3321,-1.42082 0.3322,-0.57202 0.8488,-0.85802 0.5167,-0.29524 1.0979,-0.29524 0.6643,0 1.1441,0.27678 0.489,0.27679 0.7473,0.82113 0.2675,0.54433 0.2675,1.36546 0,0.10148 -0.01,0.23065 -0.01,0.12916 -0.018,0.23065 h -3.1646 q 0.037,0.52589 0.3967,0.82112 0.3691,0.29524 1.0241,0.29524 0.406,0 0.7473,-0.0738 0.3506,-0.0738 0.5536,-0.16607 l 0.1753,0.98719 q -0.203,0.10149 -0.6643,0.19375 -0.452,0.10149 -0.9595,0.10149 z m -1.2732,-3.00771 h 2.0205 q -0.01,-0.28601 -0.1199,-0.52589 -0.1015,-0.2491 -0.3137,-0.39672 -0.203,-0.14762 -0.5443,-0.14762 -0.3322,0 -0.5536,0.15685 -0.2122,0.14762 -0.3321,0.39672 -0.12,0.23988 -0.1569,0.51666 z m 7.3351,3.00771 q -0.8581,0 -1.4024,-0.33214 -0.5444,-0.33214 -0.8119,-0.90416 -0.2583,-0.57202 -0.2583,-1.30088 0,-0.71041 0.2952,-1.28243 0.2952,-0.58124 0.8396,-0.9226 0.5443,-0.34137 1.3008,-0.34137 0.3875,0 0.7105,0.0738 0.3321,0.0646 0.6089,0.18452 l -0.2584,0.96874 q -0.1937,-0.0738 -0.4244,-0.12916 -0.2306,-0.0554 -0.5351,-0.0554 -0.655,0 -0.9779,0.41517 -0.3229,0.40595 -0.3229,1.08868 0,0.46131 0.1291,0.80267 0.1292,0.33214 0.4336,0.51666 0.3045,0.1753 0.8027,0.1753 0.2768,0 0.5536,-0.0554 0.286,-0.0554 0.4982,-0.14762 l 0.1845,0.99642 q -0.2214,0.10149 -0.5812,0.1753 -0.3598,0.0738 -0.7842,0.0738 z m 4.8901,-0.009 q -0.7104,0 -1.1164,-0.2491 -0.3967,-0.25833 -0.5628,-0.71041 -0.1568,-0.46131 -0.1568,-1.08868 v -4.15174 l 1.1994,-0.19375 v 1.4485 h 1.7068 v 1.00564 h -1.7068 v 1.89135 q 0,0.34136 0.074,0.57202 0.083,0.22142 0.2583,0.33214 0.1845,0.11071 0.489,0.11071 0.2491,0 0.4798,-0.0461 0.2398,-0.0554 0.4244,-0.12917 l 0.1753,0.95029 q -0.2215,0.0923 -0.5259,0.1753 -0.3045,0.083 -0.7381,0.083 z m 4.5164,-0.009 q -0.5997,0 -1.0517,-0.14761 -0.4521,-0.15685 -0.7104,-0.49821 -0.2491,-0.35059 -0.2491,-0.93184 0,-0.55356 0.2767,-0.8857 0.286,-0.33214 0.7566,-0.47053 0.4705,-0.14762 1.0056,-0.14762 0.2676,0 0.489,0.0277 0.2307,0.0277 0.3414,0.0646 v -0.16607 q 0,-0.25833 -0.092,-0.4613 -0.083,-0.20298 -0.3045,-0.31369 -0.2122,-0.11994 -0.5904,-0.11994 -0.3967,0 -0.7197,0.0554 -0.3229,0.0554 -0.5351,0.13839 l -0.1568,-0.97797 q 0.2214,-0.0738 0.6366,-0.14761 0.4244,-0.083 0.9041,-0.083 0.7658,0 1.2087,0.23988 0.4428,0.23988 0.6273,0.6735 0.1846,0.43363 0.1846,1.0241 v 2.89699 q -0.2676,0.0554 -0.7935,0.13839 -0.5166,0.0923 -1.2271,0.0923 z m 0.092,-0.94106 q 0.2399,0 0.4429,-0.009 0.2029,-0.0185 0.3229,-0.0461 v -1.18094 q -0.083,-0.0277 -0.2676,-0.0461 -0.1753,-0.0277 -0.369,-0.0277 -0.2676,0 -0.5075,0.0553 -0.2306,0.0461 -0.3782,0.18453 -0.1477,0.13839 -0.1477,0.40594 0,0.36905 0.2399,0.51667 0.2491,0.14761 0.6643,0.14761 z"
           id="path22"
           style="font-weight:bold;font-size:9.22609px;font-family:Ubuntu;-inkscape-font-specification:'Ubuntu, Bold';letter-spacing:0.79375px;fill:#1e162c;fill-opacity:0.972549;stroke-width:2.60089"
           aria-label="Avecta" /><path
           style="font-weight:bold;font-size:9.22609px;font-family:Ubuntu;-inkscape-font-specification:'Ubuntu, Bold';letter-spacing:0.79375px;fill:url(#linearGradient26);fill-opacity:0.972549;stroke-width:2.60089"
           d="m 1080.2744,516.64709 q 0.489,-1.36546 0.9041,-2.47259 0.4152,-1.11635 0.8119,-2.06664 0.406,-0.95952 0.8396,-1.85445 h 1.1902 q 0.3229,0.67351 0.6274,1.38392 0.3044,0.70118 0.6089,1.46695 0.3044,0.76576 0.6274,1.64224 0.3321,0.87648 0.6919,1.90057 h -1.347 q -0.1199,-0.36904 -0.2583,-0.72886 -0.1292,-0.36904 -0.2491,-0.73808 h -2.6295 q -0.1291,0.36904 -0.2675,0.73808 -0.1292,0.35982 -0.2399,0.72886 z m 2.122,-2.47259 h 2.0113 q -0.1476,-0.43362 -0.2953,-0.82112 -0.1476,-0.39672 -0.286,-0.72886 -0.1291,-0.34137 -0.2398,-0.60892 -0.1108,-0.27679 -0.1938,-0.47976 -0.074,0.20297 -0.1845,0.47976 -0.1015,0.26755 -0.2399,0.60892 -0.1292,0.33214 -0.2768,0.72886 -0.1476,0.3875 -0.2952,0.82112 z m 5.822,2.47259 v -6.39368 h 1.2639 v 6.39368 z"
           id="path23"
           aria-label="AI" /></g></g></g></svg>
