<svg width="18" height="18" viewBox="0 0 18 18" fill="none" xmlns="http://www.w3.org/2000/svg">
<path d="M1 9L8.71378 12.8798C8.81873 12.9326 8.8712 12.959 8.92624 12.9694C8.97499 12.9786 9.02501 12.9786 9.07376 12.9694C9.1288 12.959 9.18127 12.9326 9.28622 12.8798L17 9M1 13.0237L8.71378 16.9035C8.81873 16.9563 8.8712 16.9827 8.92624 16.9931C8.97499 17.0023 9.02501 17.0023 9.07376 16.9931C9.1288 16.9827 9.18127 16.9563 9.28622 16.9035L17 13.0237M1 4.97625L8.71378 1.09646C8.81873 1.04368 8.8712 1.01729 8.92624 1.0069C8.97499 0.9977 9.02501 0.9977 9.07376 1.0069C9.1288 1.01729 9.18127 1.04368 9.28622 1.09646L17 4.97625L9.28622 8.85604C9.18127 8.90883 9.1288 8.93522 9.07376 8.94561C9.02501 8.95481 8.97499 8.95481 8.92624 8.94561C8.8712 8.93522 8.81873 8.90883 8.71378 8.85604L1 4.97625Z" stroke="#1E162C" stroke-width="2" stroke-linecap="round" stroke-linejoin="round"/>
</svg>
